<svg xmlns="http://www.w3.org/2000/svg" width="1640" height="470" viewBox="0 0 1640 470">
<title>Strategy to Benefits Cascade</title><rect width="1640" height="470" fill="#ffffff"/>
<style>
text{font-family:Arial,Helvetica,sans-serif;fill:#1f2937}.title{font-size:26px;font-weight:700;fill:#17365d}.sub{font-size:14px;fill:#667085}
.box{fill:#eef3f9;stroke:#cfd9e8;stroke-width:1.5}.box2{fill:#ffffff;stroke:#2f5597;stroke-width:1.8}.bt{font-size:15px;font-weight:700;fill:#17365d}
.sm{font-size:11px;fill:#667085}.band{fill:#17365d}.bandtext{font-size:14px;font-weight:700;fill:#ffffff}.arrow{stroke:#2f5597;stroke-width:2;fill:none;marker-end:url(#a)}
</style><defs><marker id="a" markerWidth="10" markerHeight="10" refX="9" refY="3" orient="auto"><path d="M0,0 L0,6 L9,3 z" fill="#2f5597"/></marker></defs><text class="title" x="50" y="45">Technology Strategy to Benefits Cascade</text><text class="sub" x="50" y="72">Decision levels above, DMAIC evidence discipline below.</text><rect class="box2" x="30" y="130" width="175" height="90" rx="10"/><text class="bt" x="117.5" y="160" text-anchor="middle">Business Need</text><text class="sm" x="117.5" y="182" text-anchor="middle">Why change?</text><path class="arrow" d="M205,175 L220,175"/><rect class="box" x="225" y="130" width="175" height="90" rx="10"/><text class="bt" x="312.5" y="160" text-anchor="middle">Strategy</text><text class="sm" x="312.5" y="182" text-anchor="middle">What matters?</text><path class="arrow" d="M400,175 L415,175"/><rect class="box" x="420" y="130" width="175" height="90" rx="10"/><text class="bt" x="507.5" y="160" text-anchor="middle">Roadmap</text><text class="sm" x="507.5" y="182" text-anchor="middle">What sequence?</text><path class="arrow" d="M595,175 L610,175"/><rect class="box2" x="615" y="130" width="175" height="90" rx="10"/><text class="bt" x="702.5" y="160" text-anchor="middle">Portfolio</text><text class="sm" x="702.5" y="182" text-anchor="middle">Where invest?</text><path class="arrow" d="M790,175 L805,175"/><rect class="box" x="810" y="130" width="175" height="90" rx="10"/><text class="bt" x="897.5" y="160" text-anchor="middle">Program</text><text class="sm" x="897.5" y="182" text-anchor="middle">What coordinated</text><text class="sm" x="897.5" y="197" text-anchor="middle">outcome?</text><path class="arrow" d="M985,175 L1000,175"/><rect class="box" x="1005" y="130" width="175" height="90" rx="10"/><text class="bt" x="1092.5" y="160" text-anchor="middle">Project</text><text class="sm" x="1092.5" y="182" text-anchor="middle">What change?</text><path class="arrow" d="M1180,175 L1195,175"/><rect class="box" x="1200" y="130" width="175" height="90" rx="10"/><text class="bt" x="1287.5" y="160" text-anchor="middle">Operations</text><text class="sm" x="1287.5" y="182" text-anchor="middle">Will it sustain?</text><path class="arrow" d="M1375,175 L1390,175"/><rect class="box2" x="1395" y="130" width="175" height="90" rx="10"/><text class="bt" x="1482.5" y="160" text-anchor="middle">Benefits</text><text class="sm" x="1482.5" y="182" text-anchor="middle">Did it improve?</text><rect class="band" x="30" y="285" width="1575" height="58" rx="10"/><text class="bandtext" x="187.5" y="320" text-anchor="middle">DEFINE</text><text class="bandtext" x="502.5" y="320" text-anchor="middle">MEASURE</text><text class="bandtext" x="817.5" y="320" text-anchor="middle">ANALYSE</text><text class="bandtext" x="1132.5" y="320" text-anchor="middle">IMPROVE</text><text class="bandtext" x="1447.5" y="320" text-anchor="middle">CONTROL</text><text class="sub" x="820" y="395" text-anchor="middle">Problem → Evidence → Cause → Intervention → Delivery → Sustained Outcome → Learning</text></svg>